<mxfile host="www.draw.io" modified="2020-02-15T18:57:49.898Z" agent="Mozilla/5.0 (Windows NT 10.0; Win64; x64) AppleWebKit/537.36 (KHTML, like Gecko) Chrome/79.0.3945.130 Safari/537.36" etag="jNZVgu4NKhtv5xzZ664S" version="12.7.0" type="github">
  <diagram id="C5RBs43oDa-KdzZeNtuy" name="Page-1">
    <mxGraphModel dx="1038" dy="548" grid="1" gridSize="10" guides="1" tooltips="1" connect="1" arrows="1" fold="1" page="1" pageScale="1" pageWidth="827" pageHeight="1169" math="0" shadow="0">
      <root>
        <mxCell id="WIyWlLk6GJQsqaUBKTNV-0"/>
        <mxCell id="WIyWlLk6GJQsqaUBKTNV-1" parent="WIyWlLk6GJQsqaUBKTNV-0"/>
        <mxCell id="mtYLg8dqzu3V57QRe9qT-0" value="&lt;font style=&quot;font-size: 14px&quot;&gt;Instructors adding/removing students from course section&lt;/font&gt;" style="text;html=1;strokeColor=none;fillColor=none;align=center;verticalAlign=middle;whiteSpace=wrap;rounded=0;" vertex="1" parent="WIyWlLk6GJQsqaUBKTNV-1">
          <mxGeometry x="130" y="50" width="360" height="40" as="geometry"/>
        </mxCell>
        <mxCell id="mtYLg8dqzu3V57QRe9qT-2" value="Created by Alex Webber" style="text;html=1;strokeColor=none;fillColor=none;align=center;verticalAlign=middle;whiteSpace=wrap;rounded=0;" vertex="1" parent="WIyWlLk6GJQsqaUBKTNV-1">
          <mxGeometry x="130" y="90" width="110" height="20" as="geometry"/>
        </mxCell>
        <mxCell id="mtYLg8dqzu3V57QRe9qT-3" value="&lt;b&gt;&lt;font style=&quot;font-size: 22px&quot;&gt;Activity Diagram&lt;/font&gt;&lt;/b&gt;" style="text;html=1;strokeColor=none;fillColor=none;align=center;verticalAlign=middle;whiteSpace=wrap;rounded=0;" vertex="1" parent="WIyWlLk6GJQsqaUBKTNV-1">
          <mxGeometry x="130" y="20" width="180" height="20" as="geometry"/>
        </mxCell>
        <mxCell id="mtYLg8dqzu3V57QRe9qT-10" style="edgeStyle=orthogonalEdgeStyle;rounded=0;orthogonalLoop=1;jettySize=auto;html=1;exitX=0.5;exitY=1;exitDx=0;exitDy=0;entryX=0.5;entryY=0;entryDx=0;entryDy=0;" edge="1" parent="WIyWlLk6GJQsqaUBKTNV-1" source="mtYLg8dqzu3V57QRe9qT-7" target="mtYLg8dqzu3V57QRe9qT-9">
          <mxGeometry relative="1" as="geometry"/>
        </mxCell>
        <mxCell id="mtYLg8dqzu3V57QRe9qT-7" value="" style="ellipse;whiteSpace=wrap;html=1;aspect=fixed;fillColor=#000000;" vertex="1" parent="WIyWlLk6GJQsqaUBKTNV-1">
          <mxGeometry x="160" y="160" width="20" height="20" as="geometry"/>
        </mxCell>
        <mxCell id="mtYLg8dqzu3V57QRe9qT-15" style="edgeStyle=orthogonalEdgeStyle;rounded=0;orthogonalLoop=1;jettySize=auto;html=1;exitX=0.5;exitY=1;exitDx=0;exitDy=0;entryX=0.5;entryY=0;entryDx=0;entryDy=0;" edge="1" parent="WIyWlLk6GJQsqaUBKTNV-1" source="mtYLg8dqzu3V57QRe9qT-9" target="mtYLg8dqzu3V57QRe9qT-11">
          <mxGeometry relative="1" as="geometry"/>
        </mxCell>
        <mxCell id="mtYLg8dqzu3V57QRe9qT-21" style="edgeStyle=orthogonalEdgeStyle;rounded=0;orthogonalLoop=1;jettySize=auto;html=1;exitX=1;exitY=0.5;exitDx=0;exitDy=0;entryX=0;entryY=0.5;entryDx=0;entryDy=0;" edge="1" parent="WIyWlLk6GJQsqaUBKTNV-1" source="mtYLg8dqzu3V57QRe9qT-9" target="mtYLg8dqzu3V57QRe9qT-16">
          <mxGeometry relative="1" as="geometry"/>
        </mxCell>
        <mxCell id="mtYLg8dqzu3V57QRe9qT-9" value="Add student(s) Form" style="rounded=1;whiteSpace=wrap;html=1;fillColor=#FFFFFF;" vertex="1" parent="WIyWlLk6GJQsqaUBKTNV-1">
          <mxGeometry x="122.5" y="220" width="95" height="40" as="geometry"/>
        </mxCell>
        <mxCell id="mtYLg8dqzu3V57QRe9qT-13" style="edgeStyle=orthogonalEdgeStyle;rounded=0;orthogonalLoop=1;jettySize=auto;html=1;exitX=0.5;exitY=1;exitDx=0;exitDy=0;entryX=0.5;entryY=0;entryDx=0;entryDy=0;" edge="1" parent="WIyWlLk6GJQsqaUBKTNV-1" source="mtYLg8dqzu3V57QRe9qT-11" target="mtYLg8dqzu3V57QRe9qT-12">
          <mxGeometry relative="1" as="geometry"/>
        </mxCell>
        <mxCell id="mtYLg8dqzu3V57QRe9qT-28" style="edgeStyle=orthogonalEdgeStyle;rounded=0;orthogonalLoop=1;jettySize=auto;html=1;exitX=1;exitY=0.5;exitDx=0;exitDy=0;entryX=0.5;entryY=0;entryDx=0;entryDy=0;" edge="1" parent="WIyWlLk6GJQsqaUBKTNV-1" source="mtYLg8dqzu3V57QRe9qT-11" target="mtYLg8dqzu3V57QRe9qT-26">
          <mxGeometry relative="1" as="geometry"/>
        </mxCell>
        <mxCell id="mtYLg8dqzu3V57QRe9qT-11" value="" style="rhombus;whiteSpace=wrap;html=1;fillColor=#FFFFFF;" vertex="1" parent="WIyWlLk6GJQsqaUBKTNV-1">
          <mxGeometry x="129" y="300" width="82" height="40" as="geometry"/>
        </mxCell>
        <mxCell id="mtYLg8dqzu3V57QRe9qT-27" style="edgeStyle=orthogonalEdgeStyle;rounded=0;orthogonalLoop=1;jettySize=auto;html=1;exitX=1;exitY=0.5;exitDx=0;exitDy=0;entryX=0;entryY=0.5;entryDx=0;entryDy=0;" edge="1" parent="WIyWlLk6GJQsqaUBKTNV-1" source="mtYLg8dqzu3V57QRe9qT-12" target="mtYLg8dqzu3V57QRe9qT-26">
          <mxGeometry relative="1" as="geometry"/>
        </mxCell>
        <mxCell id="mtYLg8dqzu3V57QRe9qT-12" value="Receive file upload" style="rounded=1;whiteSpace=wrap;html=1;fillColor=#FFFFFF;" vertex="1" parent="WIyWlLk6GJQsqaUBKTNV-1">
          <mxGeometry x="125" y="390" width="90" height="40" as="geometry"/>
        </mxCell>
        <mxCell id="mtYLg8dqzu3V57QRe9qT-14" value="[multiple]" style="text;html=1;strokeColor=none;fillColor=none;align=center;verticalAlign=middle;whiteSpace=wrap;rounded=0;" vertex="1" parent="WIyWlLk6GJQsqaUBKTNV-1">
          <mxGeometry x="110" y="350" width="59" height="20" as="geometry"/>
        </mxCell>
        <mxCell id="mtYLg8dqzu3V57QRe9qT-22" style="edgeStyle=orthogonalEdgeStyle;rounded=0;orthogonalLoop=1;jettySize=auto;html=1;exitX=0.5;exitY=0;exitDx=0;exitDy=0;" edge="1" parent="WIyWlLk6GJQsqaUBKTNV-1" source="mtYLg8dqzu3V57QRe9qT-16">
          <mxGeometry relative="1" as="geometry">
            <mxPoint x="170" y="200" as="targetPoint"/>
            <Array as="points">
              <mxPoint x="280" y="200"/>
            </Array>
          </mxGeometry>
        </mxCell>
        <mxCell id="mtYLg8dqzu3V57QRe9qT-25" style="edgeStyle=orthogonalEdgeStyle;rounded=0;orthogonalLoop=1;jettySize=auto;html=1;exitX=0.5;exitY=1;exitDx=0;exitDy=0;" edge="1" parent="WIyWlLk6GJQsqaUBKTNV-1" source="mtYLg8dqzu3V57QRe9qT-16">
          <mxGeometry relative="1" as="geometry">
            <mxPoint x="170" y="280" as="targetPoint"/>
            <Array as="points">
              <mxPoint x="280" y="280"/>
            </Array>
          </mxGeometry>
        </mxCell>
        <mxCell id="mtYLg8dqzu3V57QRe9qT-16" value="" style="rhombus;whiteSpace=wrap;html=1;fillColor=#FFFFFF;" vertex="1" parent="WIyWlLk6GJQsqaUBKTNV-1">
          <mxGeometry x="240" y="220" width="80" height="40" as="geometry"/>
        </mxCell>
        <mxCell id="mtYLg8dqzu3V57QRe9qT-20" value="[valid course]" style="text;html=1;strokeColor=none;fillColor=none;align=center;verticalAlign=middle;whiteSpace=wrap;rounded=0;" vertex="1" parent="WIyWlLk6GJQsqaUBKTNV-1">
          <mxGeometry x="190" y="280" width="90" height="20" as="geometry"/>
        </mxCell>
        <mxCell id="mtYLg8dqzu3V57QRe9qT-23" value="[invalid course]" style="text;html=1;strokeColor=none;fillColor=none;align=center;verticalAlign=middle;whiteSpace=wrap;rounded=0;" vertex="1" parent="WIyWlLk6GJQsqaUBKTNV-1">
          <mxGeometry x="180" y="180" width="90" height="20" as="geometry"/>
        </mxCell>
        <mxCell id="mtYLg8dqzu3V57QRe9qT-31" style="edgeStyle=orthogonalEdgeStyle;rounded=0;orthogonalLoop=1;jettySize=auto;html=1;exitX=0.5;exitY=1;exitDx=0;exitDy=0;entryX=0.5;entryY=0;entryDx=0;entryDy=0;" edge="1" parent="WIyWlLk6GJQsqaUBKTNV-1" source="mtYLg8dqzu3V57QRe9qT-26" target="mtYLg8dqzu3V57QRe9qT-30">
          <mxGeometry relative="1" as="geometry"/>
        </mxCell>
        <mxCell id="mtYLg8dqzu3V57QRe9qT-26" value="Add student(s) to course" style="rounded=1;whiteSpace=wrap;html=1;fillColor=#FFFFFF;" vertex="1" parent="WIyWlLk6GJQsqaUBKTNV-1">
          <mxGeometry x="265" y="390" width="90" height="40" as="geometry"/>
        </mxCell>
        <mxCell id="mtYLg8dqzu3V57QRe9qT-29" value="[single]" style="text;html=1;strokeColor=none;fillColor=none;align=center;verticalAlign=middle;whiteSpace=wrap;rounded=0;" vertex="1" parent="WIyWlLk6GJQsqaUBKTNV-1">
          <mxGeometry x="210" y="320" width="90" height="20" as="geometry"/>
        </mxCell>
        <mxCell id="mtYLg8dqzu3V57QRe9qT-30" value="" style="ellipse;html=1;shape=endState;fillColor=#000000;strokeColor=#ff0000;" vertex="1" parent="WIyWlLk6GJQsqaUBKTNV-1">
          <mxGeometry x="295" y="470" width="30" height="30" as="geometry"/>
        </mxCell>
      </root>
    </mxGraphModel>
  </diagram>
</mxfile>
